<svg width="94" height="29" viewBox="0 0 94 29" fill="none" xmlns="http://www.w3.org/2000/svg">
<path d="M10.8 0.8C13.12 0.8 15.08 1.21333 16.68 2.04C18.28 2.86667 19.08 4.21333 19.08 6.08C19.08 7.25333 18.7067 8.16 17.96 8.8C17.2133 9.44 16.24 9.76 15.04 9.76C14.2133 9.76 13.52 9.61333 12.96 9.32C13.1467 8.65333 13.24 7.88 13.24 7C13.24 5.93333 13 5.10667 12.52 4.52C12.0667 3.90667 11.3333 3.6 10.32 3.6C9.44 3.6 8.73333 3.84 8.2 4.32C7.69333 4.8 7.44 5.48 7.44 6.36C7.44 7.26667 7.68 8.08 8.16 8.8C8.64 9.49333 9.22667 10.0933 9.92 10.6C10.64 11.1067 11.6133 11.72 12.84 12.44C14.28 13.2933 15.44 14.0533 16.32 14.72C17.2267 15.3867 17.9867 16.2267 18.6 17.24C19.24 18.2533 19.56 19.4667 19.56 20.88C19.56 23.52 18.6267 25.52 16.76 26.88C14.8933 28.2133 12.4667 28.88 9.48 28.88C7 28.88 4.90667 28.44 3.2 27.56C1.52 26.68 0.68 25.2533 0.68 23.28C0.68 22.1067 1.05333 21.16 1.8 20.44C2.57333 19.72 3.54667 19.36 4.72 19.36C5.6 19.36 6.29333 19.5067 6.8 19.8C6.61333 20.6267 6.52 21.3333 6.52 21.92C6.52 24.6933 7.66667 26.08 9.96 26.08C11.0267 26.08 11.8933 25.7867 12.56 25.2C13.2267 24.5867 13.56 23.7733 13.56 22.76C13.56 21.8533 13.32 21.0533 12.84 20.36C12.36 19.64 11.76 19.0267 11.04 18.52C10.32 17.9867 9.36 17.36 8.16 16.64C6.72 15.7867 5.54667 15.0267 4.64 14.36C3.76 13.6933 3 12.8533 2.36 11.84C1.74667 10.8267 1.44 9.62667 1.44 8.24C1.44 6.66667 1.86667 5.32 2.72 4.2C3.57333 3.08 4.70667 2.24 6.12 1.68C7.56 1.09333 9.12 0.8 10.8 0.8ZM31.3878 6.8C34.5878 6.8 36.9878 7.74667 38.5878 9.64C40.2145 11.5333 41.0278 14.16 41.0278 17.52C41.0278 20.9867 40.2145 23.7467 38.5878 25.8C36.9611 27.8533 34.5611 28.88 31.3878 28.88C28.2411 28.88 25.8411 27.8933 24.1878 25.92C22.5345 23.9467 21.7078 21.28 21.7078 17.92C21.7078 14.5067 22.5211 11.8 24.1478 9.8C25.8011 7.8 28.2145 6.8 31.3878 6.8ZM31.3878 26.48C32.7745 26.48 33.6678 25.6667 34.0678 24.04C34.4678 22.4133 34.6678 20.3067 34.6678 17.72C34.6678 15.2667 34.4545 13.24 34.0278 11.64C33.6011 10.0133 32.7211 9.2 31.3878 9.2C30.0545 9.2 29.1745 10.0133 28.7478 11.64C28.3211 13.2667 28.1078 15.2933 28.1078 17.72C28.1078 20.3067 28.3078 22.4133 28.7078 24.04C29.1078 25.6667 30.0011 26.48 31.3878 26.48ZM71.9466 1.6V28H65.3066V6.76L58.8666 28H55.0266L48.5866 6.72V28H44.4266V1.6H53.4666L58.3066 18.44L63.1066 1.6H71.9466ZM91.3806 21.76C92.074 22.08 92.4206 22.7333 92.4206 23.72C92.4206 24.8133 92.0606 25.7467 91.3406 26.52C90.6206 27.2933 89.6873 27.88 88.5406 28.28C87.4206 28.68 86.2606 28.88 85.0606 28.88C81.8606 28.88 79.434 27.9067 77.7806 25.96C76.154 24.0133 75.3406 21.3467 75.3406 17.96C75.3406 14.4667 76.2206 11.7333 77.9806 9.76C79.7673 7.78667 82.3406 6.8 85.7006 6.8C87.8606 6.8 89.6473 7.29333 91.0606 8.28C92.474 9.26667 93.1806 10.72 93.1806 12.64C93.1806 15.0133 92.3406 16.6533 90.6606 17.56C88.9806 18.4667 86.6873 18.92 83.7806 18.92C82.874 18.92 82.1673 18.88 81.6606 18.8C81.7406 20.6933 82.1006 22.1867 82.7406 23.28C83.4073 24.3733 84.514 24.92 86.0606 24.92C87.2073 24.92 88.2473 24.6533 89.1806 24.12C90.1406 23.56 90.874 22.7733 91.3806 21.76ZM85.1006 9.16C83.8206 9.16 82.9273 9.94667 82.4206 11.52C81.9406 13.0667 81.6873 14.88 81.6606 16.96H82.4606C84.1406 16.9867 85.4073 16.68 86.2606 16.04C87.1406 15.4 87.5806 14.3067 87.5806 12.76C87.5806 11.7467 87.3673 10.8933 86.9406 10.2C86.5406 9.50667 85.9273 9.16 85.1006 9.16Z" fill="white"/>
</svg>
