<svg width="94" height="29" viewBox="0 0 94 29" fill="none" xmlns="http://www.w3.org/2000/svg">
<path d="M10.8 0.440014C13.12 0.440014 15.08 0.853347 16.68 1.68001C18.28 2.50668 19.08 3.85335 19.08 5.72001C19.08 6.89335 18.7067 7.80001 17.96 8.44001C17.2133 9.08001 16.24 9.40001 15.04 9.40001C14.2133 9.40001 13.52 9.25335 12.96 8.96001C13.1467 8.29335 13.24 7.52001 13.24 6.64001C13.24 5.57335 13 4.74668 12.52 4.16001C12.0667 3.54668 11.3333 3.24001 10.32 3.24001C9.44 3.24001 8.73333 3.48001 8.2 3.96001C7.69333 4.44001 7.44 5.12001 7.44 6.00001C7.44 6.90668 7.68 7.72001 8.16 8.44001C8.64 9.13335 9.22667 9.73335 9.92 10.24C10.64 10.7467 11.6133 11.36 12.84 12.08C14.28 12.9333 15.44 13.6933 16.32 14.36C17.2267 15.0267 17.9867 15.8667 18.6 16.88C19.24 17.8933 19.56 19.1067 19.56 20.52C19.56 23.16 18.6267 25.16 16.76 26.52C14.8933 27.8533 12.4667 28.52 9.48 28.52C7 28.52 4.90667 28.08 3.2 27.2C1.52 26.32 0.68 24.8933 0.68 22.92C0.68 21.7467 1.05333 20.8 1.8 20.08C2.57333 19.36 3.54667 19 4.72 19C5.6 19 6.29333 19.1467 6.8 19.44C6.61333 20.2667 6.52 20.9733 6.52 21.56C6.52 24.3333 7.66667 25.72 9.96 25.72C11.0267 25.72 11.8933 25.4267 12.56 24.84C13.2267 24.2267 13.56 23.4133 13.56 22.4C13.56 21.4933 13.32 20.6933 12.84 20C12.36 19.28 11.76 18.6667 11.04 18.16C10.32 17.6267 9.36 17 8.16 16.28C6.72 15.4267 5.54667 14.6667 4.64 14C3.76 13.3333 3 12.4933 2.36 11.48C1.74667 10.4667 1.44 9.26668 1.44 7.88001C1.44 6.30668 1.86667 4.96001 2.72 3.84001C3.57333 2.72001 4.70667 1.88001 6.12 1.32001C7.56 0.733347 9.12 0.440014 10.8 0.440014ZM31.3878 6.44001C34.5878 6.44001 36.9878 7.38668 38.5878 9.28001C40.2145 11.1733 41.0278 13.8 41.0278 17.16C41.0278 20.6267 40.2145 23.3867 38.5878 25.44C36.9611 27.4933 34.5611 28.52 31.3878 28.52C28.2411 28.52 25.8411 27.5333 24.1878 25.56C22.5345 23.5867 21.7078 20.92 21.7078 17.56C21.7078 14.1467 22.5211 11.44 24.1478 9.44001C25.8011 7.44001 28.2145 6.44001 31.3878 6.44001ZM31.3878 26.12C32.7745 26.12 33.6678 25.3067 34.0678 23.68C34.4678 22.0533 34.6678 19.9467 34.6678 17.36C34.6678 14.9067 34.4545 12.88 34.0278 11.28C33.6011 9.65335 32.7211 8.84001 31.3878 8.84001C30.0545 8.84001 29.1745 9.65335 28.7478 11.28C28.3211 12.9067 28.1078 14.9333 28.1078 17.36C28.1078 19.9467 28.3078 22.0533 28.7078 23.68C29.1078 25.3067 30.0011 26.12 31.3878 26.12ZM71.9466 1.24001V27.64H65.3066V6.40001L58.8666 27.64H55.0266L48.5866 6.36001V27.64H44.4266V1.24001H53.4666L58.3066 18.08L63.1066 1.24001H71.9466ZM91.3806 21.4C92.074 21.72 92.4206 22.3733 92.4206 23.36C92.4206 24.4533 92.0606 25.3867 91.3406 26.16C90.6206 26.9333 89.6873 27.52 88.5406 27.92C87.4206 28.32 86.2606 28.52 85.0606 28.52C81.8606 28.52 79.434 27.5467 77.7806 25.6C76.154 23.6533 75.3406 20.9867 75.3406 17.6C75.3406 14.1067 76.2206 11.3733 77.9806 9.40001C79.7673 7.42668 82.3406 6.44001 85.7006 6.44001C87.8606 6.44001 89.6473 6.93335 91.0606 7.92001C92.474 8.90668 93.1806 10.36 93.1806 12.28C93.1806 14.6533 92.3406 16.2933 90.6606 17.2C88.9806 18.1067 86.6873 18.56 83.7806 18.56C82.874 18.56 82.1673 18.52 81.6606 18.44C81.7406 20.3333 82.1006 21.8267 82.7406 22.92C83.4073 24.0133 84.514 24.56 86.0606 24.56C87.2073 24.56 88.2473 24.2933 89.1806 23.76C90.1406 23.2 90.874 22.4133 91.3806 21.4ZM85.1006 8.80001C83.8206 8.80001 82.9273 9.58668 82.4206 11.16C81.9406 12.7067 81.6873 14.52 81.6606 16.6H82.4606C84.1406 16.6267 85.4073 16.32 86.2606 15.68C87.1406 15.04 87.5806 13.9467 87.5806 12.4C87.5806 11.3867 87.3673 10.5333 86.9406 9.84001C86.5406 9.14668 85.9273 8.80001 85.1006 8.80001Z" fill="#4E4E4E"/>
</svg>
