<svg width="99" height="33" viewBox="0 0 99 33" fill="none" xmlns="http://www.w3.org/2000/svg">
<path d="M10.7991 0.390259C13.2559 0.390259 15.3314 0.860504 17.0258 1.80111C18.7201 2.74171 19.5672 4.27384 19.5672 6.39773C19.5672 7.73268 19.1719 8.7643 18.3812 9.49248C17.5905 10.2207 16.5598 10.5847 15.2891 10.5847C14.4136 10.5847 13.6795 10.4178 13.0864 10.0841C13.2842 9.32557 13.383 8.44573 13.383 7.44448C13.383 6.23081 13.1288 5.29033 12.6205 4.62279C12.1405 3.92499 11.3639 3.57604 10.2908 3.57604C9.35894 3.57604 8.61057 3.8491 8.04584 4.39524C7.50926 4.94137 7.24104 5.71506 7.24104 6.7163C7.24104 7.74793 7.49519 8.67328 8.00348 9.49248C8.51178 10.2813 9.13306 10.964 9.86723 11.5405C10.6297 12.117 11.6604 12.8148 12.9594 13.634C14.4843 14.6049 15.7127 15.4696 16.6445 16.2281C17.6047 16.9867 18.4095 17.9424 19.0589 19.0953C19.7367 20.2482 20.0755 21.6288 20.0755 23.2368C20.0755 26.2406 19.0872 28.5161 17.1105 30.0635C15.1337 31.5805 12.5641 32.3391 9.4013 32.3391C6.7751 32.3391 4.55839 31.8384 2.75108 30.8372C0.972036 29.8359 0.0825195 28.2127 0.0825195 25.9675C0.0825195 24.6325 0.477829 23.5554 1.26855 22.7362C2.08744 21.917 3.11822 21.5074 4.36069 21.5074C5.29256 21.5074 6.02674 21.6743 6.56331 22.008C6.3656 22.9486 6.2668 23.7526 6.2668 24.4201C6.2668 27.5755 7.4811 29.1533 9.90959 29.1533C11.0392 29.1533 11.9569 28.8196 12.6629 28.152C13.3689 27.4542 13.7218 26.5288 13.7218 25.3759C13.7218 24.3442 13.4677 23.434 12.9594 22.6452C12.4511 21.826 11.8157 21.1282 11.0533 20.5517C10.2908 19.9449 9.27423 19.2319 8.00348 18.4127C6.47859 17.4418 5.23612 16.5771 4.27597 15.8185C3.34409 15.06 2.53929 14.1042 1.86156 12.9513C1.2121 11.7984 0.887325 10.4331 0.887325 8.85533C0.887325 7.06526 1.33918 5.53302 2.24278 4.2587C3.14639 2.98439 4.3466 2.02866 5.84322 1.3915C7.36811 0.72397 9.02008 0.390259 10.7991 0.390259ZM32.6008 7.21692C35.9895 7.21692 38.5309 8.29406 40.2253 10.4482C41.9471 12.6024 42.8091 15.591 42.8091 19.4139C42.8091 23.3582 41.9471 26.4985 40.2253 28.8347C38.5024 31.1709 35.9609 32.3391 32.6008 32.3391C29.2683 32.3391 26.7269 31.2164 24.9761 28.9712C23.2254 26.7261 22.35 23.6919 22.35 19.869C22.35 15.9854 23.2112 12.9058 24.9338 10.6303C26.6846 8.3547 29.2397 7.21692 32.6008 7.21692ZM32.6008 29.6084C34.0685 29.6084 35.0152 28.683 35.4388 26.8322C35.8624 24.9814 36.0742 22.5845 36.0742 19.6415C36.0742 16.8501 35.8476 14.5442 35.3965 12.7238C34.9443 10.8729 34.0124 9.94759 32.6008 9.94759C31.1882 9.94759 30.2563 10.8729 29.8052 12.7238C29.353 14.5746 29.1275 16.8804 29.1275 19.6415C29.1275 22.5845 29.3392 24.9814 29.7628 26.8322C30.1864 28.683 31.1321 29.6084 32.6008 29.6084ZM75.5509 1.30048V31.3378H68.5194V7.17141L61.6998 31.3378H57.6334L50.8137 7.1259V31.3378H46.4085V1.30048H55.9814L61.1068 20.4607L66.1897 1.30048H75.5509ZM96.1305 24.2381C96.8644 24.6022 97.2318 25.3455 97.2318 26.4681C97.2318 27.7121 96.8506 28.7741 96.0882 29.6539C95.3257 30.5337 94.3367 31.2013 93.1231 31.6564C91.9371 32.1115 90.7087 32.3391 89.438 32.3391C86.0493 32.3391 83.4792 31.2317 81.7288 29.0167C80.0059 26.8018 79.1449 23.7678 79.1449 19.9145C79.1449 15.9399 80.0768 12.8299 81.9406 10.5847C83.8319 8.33957 86.5576 7.21692 90.1157 7.21692C92.403 7.21692 94.2943 7.77819 95.7917 8.90084C97.288 10.0235 98.0366 11.677 98.0366 13.8615C98.0366 16.5618 97.1471 18.4278 95.3681 19.4594C93.589 20.491 91.1598 21.0068 88.0825 21.0068C87.122 21.0068 86.3733 20.9613 85.8375 20.8703C85.9222 23.0244 86.3034 24.7236 86.9812 25.9675C87.6864 27.2114 88.8587 27.8335 90.4969 27.8335C91.7105 27.8335 92.8118 27.53 93.8008 26.9232C94.8174 26.2861 95.5936 25.391 96.1305 24.2381ZM89.4803 9.90208C88.1248 9.90208 87.1781 10.7972 86.6423 12.5872C86.134 14.347 85.865 16.4102 85.8375 18.7767H86.6847C88.4637 18.8071 89.8043 18.4582 90.7087 17.73C91.6406 17.0018 92.1065 15.7579 92.1065 13.9981C92.1065 12.8452 91.8799 11.8742 91.4288 11.0854C91.0052 10.2965 90.355 9.90208 89.4803 9.90208Z" fill="white"/>
</svg>