<?xml version="1.0" standalone="no"?>
<!DOCTYPE svg PUBLIC "-//W3C//DTD SVG 20010904//EN"
 "http://www.w3.org/TR/2001/REC-SVG-20010904/DTD/svg10.dtd">
<svg version="1.0" xmlns="http://www.w3.org/2000/svg"
 width="300.000000pt" height="300.000000pt" viewBox="0 0 300.000000 300.000000"
 preserveAspectRatio="xMidYMid meet">
<metadata>
Created by potrace 1.11, written by Peter Selinger 2001-2013
</metadata>
<g transform="translate(0.000000,300.000000) scale(0.100000,-0.100000)"
fill="#000000" stroke="none">
<path d="M1355 2994 c-229 -33 -374 -77 -544 -164 -198 -103 -383 -261 -521
-445 -121 -162 -224 -401 -267 -620 -24 -125 -24 -405 0 -530 44 -222 147
-460 271 -625 79 -105 215 -241 321 -320 162 -121 401 -224 620 -267 125 -24
405 -24 530 0 222 44 460 147 625 271 105 79 241 215 320 321 121 162 224 401
267 620 24 125 24 405 0 530 -44 222 -147 460 -271 625 -79 106 -216 241 -321
320 -161 120 -388 219 -594 261 -92 19 -366 33 -436 23z m400 -709 c181 -46
263 -132 265 -277 0 -70 -12 -103 -53 -146 -55 -57 -196 -80 -266 -43 -17 10
-19 15 -9 41 5 17 8 68 7 113 -4 74 -7 88 -33 121 -36 47 -79 66 -151 66 -67
0 -110 -17 -150 -59 -25 -28 -30 -41 -33 -100 -9 -152 39 -205 343 -377 110
-62 156 -95 216 -154 109 -108 124 -144 124 -295 0 -81 -5 -131 -14 -155 -58
-141 -186 -239 -363 -276 -54 -12 -110 -15 -213 -11 -120 3 -152 8 -224 32
-107 36 -158 75 -194 145 -25 49 -28 64 -25 131 3 65 7 81 32 113 47 62 148
89 245 66 l52 -12 -8 -37 c-37 -170 33 -287 179 -298 150 -12 238 68 238 217
0 145 -52 203 -330 365 -223 129 -311 213 -345 328 -22 73 -19 194 5 259 50
134 199 231 399 259 77 11 233 2 306 -16z"/>
</g>
</svg>
