<?xml version="1.0"?><svg fill="#E85556" xmlns="http://www.w3.org/2000/svg" viewBox="0 0 24 24" width="30px" height="30px">    <path d="M 11 3 C 10.448 3 10 3.448 10 4 L 10 6 C 10 6.552 10.448 7 11 7 L 13 7 C 13.552 7 14 6.552 14 6 L 14 4 C 14 3.448 13.552 3 13 3 L 11 3 z M 11 10 C 10.448 10 10 10.448 10 11 L 10 13 C 10 13.552 10.448 14 11 14 L 13 14 C 13.552 14 14 13.552 14 13 L 14 11 C 14 10.448 13.552 10 13 10 L 11 10 z M 11 17 C 10.448 17 10 17.448 10 18 L 10 20 C 10 20.552 10.448 21 11 21 L 13 21 C 13.552 21 14 20.552 14 20 L 14 18 C 14 17.448 13.552 17 13 17 L 11 17 z"/></svg>