<?xml version="1.0"?><svg fill="#848484" xmlns="http://www.w3.org/2000/svg" viewBox="0 0 24 24" width="30px" height="30px">    <path d="M 12 2 C 11.172 2 10.5 2.672 10.5 3.5 L 10.5 4.1992188 C 7.920403 4.8702644 6 7.2170553 6 10 L 6 14.837891 L 5.2792969 17 L 4 17 L 4 19 L 10.269531 19 A 2 2 0 0 0 10 20 A 2 2 0 0 0 12 22 A 2 2 0 0 0 14 20 A 2 2 0 0 0 13.728516 19 L 20 19 L 20 17 L 18.720703 17 L 18 14.837891 L 18 10 C 18 7.2170553 16.079597 4.8702644 13.5 4.1992188 L 13.5 3.5 C 13.5 2.672 12.828 2 12 2 z M 12 6 C 14.220375 6 16 7.7796254 16 10 L 16 15.162109 L 16.611328 17 L 7.3886719 17 L 8 15.162109 L 8 10 C 8 7.7796254 9.7796254 6 12 6 z"/></svg>