<?xml version="1.0"?><svg fill="#E85556" xmlns="http://www.w3.org/2000/svg" viewBox="0 0 24 24" width="30px" height="30px">    <path d="M 18 4 C 17.448 4 17 4.448 17 5 L 17 19 C 17 19.552 17.448 20 18 20 L 21 20 C 21.552 20 22 19.552 22 19 L 22 5 C 22 4.448 21.552 4 21 4 L 18 4 z M 11 8 C 10.448 8 10 8.448 10 9 L 10 19 C 10 19.552 10.448 20 11 20 L 14 20 C 14.552 20 15 19.552 15 19 L 15 9 C 15 8.448 14.552 8 14 8 L 11 8 z M 4 12 C 3.448 12 3 12.448 3 13 L 3 19 C 3 19.552 3.448 20 4 20 L 7 20 C 7.552 20 8 19.552 8 19 L 8 13 C 8 12.448 7.552 12 7 12 L 4 12 z"/></svg>